<svg width="295" height="63" viewBox="0 0 295 63" fill="none" xmlns="http://www.w3.org/2000/svg">
<path d="M54.5504 38.5505L48.3004 49.3755C47.0754 51.5255 44.8004 52.6505 42.5004 52.5005H37.5004V57.5005L31.2504 46.2505L37.5004 35.0005V40.0005H44.5504L39.0004 30.3755L49.8254 24.1255L54.3254 31.9255C55.6254 33.8505 55.8004 36.4255 54.5504 38.5505ZM23.0254 7.65051H35.5254C37.9754 7.65051 40.1004 9.07551 41.1254 11.1255L43.6254 15.4755L47.9504 12.9755L41.3504 24.0005L28.4754 24.2255L32.8004 21.7255L29.2754 15.6005L23.7504 25.2255L12.9004 18.9755L17.4004 11.1755C18.4254 9.10051 20.5504 7.65051 23.0254 7.65051ZM12.6254 49.4005L6.37539 38.5755C5.15039 36.4505 5.32539 33.9005 6.60039 31.9755L9.10039 27.6505L4.77539 25.1505L17.6254 25.3505L24.2504 36.4005L19.9254 33.9005L16.4004 40.0005H27.5004V52.5005H18.5004C17.3292 52.5853 16.1576 52.3397 15.119 51.7917C14.0805 51.2436 13.2165 50.4152 12.6254 49.4005Z" fill="white"/>
<path d="M93.4657 62.9086C90.9724 62.9086 88.3333 61.7914 85.5486 59.5571C84.2857 58.5533 82.9257 57.3552 81.4686 55.9629C80.0114 54.5705 79.0724 53.68 78.6514 53.2914C76.4819 55.2019 74.0695 56.1571 71.4143 56.1571C69.6981 56.1571 68.2733 55.72 67.14 54.8457C66.039 53.9714 65.4886 52.8381 65.4886 51.4457C65.4886 50.0533 66.0552 48.8714 67.1886 47.9C68.3543 46.961 69.9248 46.4914 71.9 46.4914C73.0657 46.4914 74.28 46.6695 75.5429 47.0257C76.0286 45.5686 76.3848 43.7552 76.6114 41.5857C75.4133 42.2333 74.0533 42.5571 72.5314 42.5571C69.52 42.5571 67.0752 41.4238 65.1971 39.1571C63.319 36.8581 62.38 33.8143 62.38 30.0257C62.38 27.5 62.8171 25.0229 63.6914 22.5943C64.5981 20.1657 65.8124 18.0286 67.3343 16.1829C68.8562 14.3371 70.7019 12.8638 72.8714 11.7629C75.0733 10.6295 77.3724 10.0629 79.7686 10.0629C80.9019 10.0629 81.9219 10.2086 82.8286 10.5C85.0629 9.01047 87.3781 8.26571 89.7743 8.26571C90.9724 8.26571 92.0733 8.44381 93.0771 8.8C94.1133 9.12381 94.8743 9.52857 95.36 10.0143C95.101 11.2448 94.7448 12.2971 94.2914 13.1714L94.0971 13.6086C92.5752 12.4752 90.94 11.9086 89.1914 11.9086C88.1552 11.9086 87.1514 12.1029 86.18 12.4914C87.7019 14.0457 88.4629 16.2962 88.4629 19.2429C88.4629 22.1571 87.7019 24.8448 86.18 27.3057C84.6581 29.7667 82.699 30.9971 80.3029 30.9971C78.6838 30.9971 77.4048 30.3819 76.4657 29.1514C75.5267 27.8886 75.0571 26.2048 75.0571 24.1C75.0571 20.5057 76.4333 17.0733 79.1857 13.8029C77.0486 14.0295 75.3 15.519 73.94 18.2714C72.6124 20.9914 71.9486 24.1486 71.9486 27.7429C71.9486 31.3371 72.4019 33.8143 73.3086 35.1743C74.2476 36.5343 75.3162 37.2143 76.5143 37.2143C77.7448 37.2143 78.9267 36.7933 80.06 35.9514C81.2257 35.0771 82.1971 33.9276 82.9743 32.5029L86.52 33.2314C85.6133 40.1286 83.9781 45.5686 81.6143 49.5514C82.1648 49.8429 83.12 50.3448 84.48 51.0571C85.84 51.8019 86.8762 52.3524 87.5886 52.7086C88.3333 53.0648 89.2724 53.4857 90.4057 53.9714C92.5105 54.8781 94.5505 55.3314 96.5257 55.3314L99.1 55.1857C100.071 56.2867 100.784 57.3552 101.237 58.3914C100.622 59.5571 99.6019 60.5933 98.1771 61.5C96.7524 62.439 95.1819 62.9086 93.4657 62.9086ZM80.2543 27.3543C81.3229 27.3543 82.181 26.5448 82.8286 24.9257C83.4762 23.3067 83.8 21.4771 83.8 19.4371C83.8 17.3971 83.3629 15.8914 82.4886 14.92C81.2581 16.1181 80.2705 17.5429 79.5257 19.1943C78.8133 20.8133 78.4571 22.3838 78.4571 23.9057C78.4571 26.2048 79.0562 27.3543 80.2543 27.3543ZM70.88 52.1257C72.2076 52.1257 73.3248 51.3971 74.2314 49.94C73.3571 49.4543 72.5152 49.2114 71.7057 49.2114C70.9286 49.2114 70.3133 49.3733 69.86 49.6971C69.439 50.021 69.2286 50.3933 69.2286 50.8143C69.2286 51.2352 69.3905 51.559 69.7143 51.7857C70.0705 52.0124 70.459 52.1257 70.88 52.1257ZM91.4565 44.7914H91.0679C90.9707 44.3381 90.9222 43.6419 90.9222 42.7029C90.9222 41.7314 91.3107 39.2543 92.0879 35.2714C92.8974 31.2562 93.3022 28.9895 93.3022 28.4714C93.3022 27.921 93.1565 27.3705 92.865 26.82C92.5736 26.2371 92.2822 25.8 91.9907 25.5086L91.5536 25.0714L91.6507 24.3429C93.5936 23.7276 96.8155 23.42 101.316 23.42C101.737 24.2295 101.996 25.1848 102.094 26.2857C104.069 24.0838 105.817 22.9829 107.339 22.9829C109.315 22.9829 110.399 24.6505 110.594 27.9857C110.529 28.0505 110.448 28.1638 110.351 28.3257C110.254 28.4552 110.027 28.6981 109.671 29.0543C109.315 29.4105 108.942 29.7343 108.554 30.0257C107.453 30.7705 106.287 31.2076 105.056 31.3371C105.024 31.3371 104.797 30.981 104.376 30.2686C103.988 29.5562 103.648 29.2 103.356 29.2C103.097 29.2 102.596 29.4914 101.851 30.0743C101.754 30.6571 101.559 31.6448 101.268 33.0371C101.009 34.4295 100.798 35.579 100.636 36.4857C100.151 38.8819 99.9079 40.8895 99.9079 42.5086L99.9565 43.9657C98.5317 44.5162 95.6984 44.7914 91.4565 44.7914ZM109.069 35.7086C109.069 31.6933 110.283 28.5686 112.711 26.3343C115.172 24.1 118.2 22.9829 121.794 22.9829C124.288 22.9829 126.279 23.5333 127.769 24.6343C129.29 25.7029 130.051 27.1438 130.051 28.9571C130.051 30.2848 129.647 31.4667 128.837 32.5029C128.028 33.539 127.04 34.3324 125.874 34.8829C123.413 35.9838 121.276 36.6476 119.463 36.8743L118.249 37.02C118.605 39.1571 119.673 40.2257 121.454 40.2257C122.231 40.2257 123.089 40.0638 124.029 39.74C124.968 39.3838 125.712 39.0276 126.263 38.6714L127.089 38.1857L128.643 40.2743C128.643 40.2743 128.465 40.4524 128.109 40.8086C127.914 41.0029 127.445 41.3914 126.7 41.9743C125.988 42.5248 125.227 43.0105 124.417 43.4314C123.64 43.8524 122.636 44.2248 121.406 44.5486C120.175 44.9048 118.945 45.0829 117.714 45.0829C114.962 45.0829 112.825 44.2895 111.303 42.7029C109.813 41.0838 109.069 38.7524 109.069 35.7086ZM118.054 33.8143C118.993 33.6848 119.932 32.9238 120.871 31.5314C121.81 30.1067 122.28 28.9248 122.28 27.9857C122.28 27.0143 122.005 26.5286 121.454 26.5286C120.645 26.5286 119.9 27.16 119.22 28.4229C118.54 29.6857 118.151 31.4829 118.054 33.8143ZM130.224 35.7086C130.224 31.6933 131.438 28.5686 133.867 26.3343C136.327 24.1 139.355 22.9829 142.949 22.9829C145.443 22.9829 147.434 23.5333 148.924 24.6343C150.446 25.7029 151.207 27.1438 151.207 28.9571C151.207 30.2848 150.802 31.4667 149.992 32.5029C149.183 33.539 148.195 34.3324 147.029 34.8829C144.568 35.9838 142.431 36.6476 140.618 36.8743L139.404 37.02C139.76 39.1571 140.828 40.2257 142.609 40.2257C143.387 40.2257 144.245 40.0638 145.184 39.74C146.123 39.3838 146.867 39.0276 147.418 38.6714L148.244 38.1857L149.798 40.2743C149.798 40.2743 149.62 40.4524 149.264 40.8086C149.069 41.0029 148.6 41.3914 147.855 41.9743C147.143 42.5248 146.382 43.0105 145.572 43.4314C144.795 43.8524 143.791 44.2248 142.561 44.5486C141.33 44.9048 140.1 45.0829 138.869 45.0829C136.117 45.0829 133.98 44.2895 132.458 42.7029C130.968 41.0838 130.224 38.7524 130.224 35.7086ZM139.209 33.8143C140.148 33.6848 141.087 32.9238 142.027 31.5314C142.966 30.1067 143.435 28.9248 143.435 27.9857C143.435 27.0143 143.16 26.5286 142.609 26.5286C141.8 26.5286 141.055 27.16 140.375 28.4229C139.695 29.6857 139.307 31.4829 139.209 33.8143ZM152.933 44.7914H152.107C152.107 42.7838 152.561 39.74 153.467 35.66C154.406 31.58 154.876 29.2324 154.876 28.6171C154.876 28.0019 154.73 27.4029 154.439 26.82C154.147 26.2371 153.856 25.8 153.565 25.5086L153.127 25.0714L153.225 24.3429C155.135 23.7276 158.47 23.42 163.23 23.42C163.554 24.1648 163.781 24.9419 163.91 25.7514C166.857 23.9381 169.334 23.0314 171.342 23.0314C172.702 23.0314 173.77 23.4848 174.547 24.3914C175.325 25.2657 175.713 26.3343 175.713 27.5971C175.713 28.8276 175.357 30.819 174.645 33.5714C173.932 36.3238 173.576 38.121 173.576 38.9629C173.576 39.7724 173.689 40.1771 173.916 40.1771L176.49 39.4971L177.365 41.9257C176.328 42.7029 174.968 43.4314 173.285 44.1114C171.633 44.759 170.111 45.0829 168.719 45.0829C165.966 45.0829 164.59 43.6581 164.59 40.8086C164.59 39.5781 164.93 37.5705 165.61 34.7857C166.29 32.001 166.63 30.2686 166.63 29.5886C166.63 28.8762 166.404 28.52 165.95 28.52C165.367 28.52 164.59 28.8438 163.619 29.4914C163.489 30.0743 163.165 31.4829 162.647 33.7171C161.611 38.4124 161.093 41.7962 161.093 43.8686C159.506 44.4838 156.786 44.7914 152.933 44.7914ZM205.57 11.4714C204.631 11.4714 203.676 11.6495 202.705 12.0057C204.065 13.1714 204.745 14.6124 204.745 16.3286C204.745 18.0124 204.243 19.5343 203.239 20.8943C202.268 22.2543 201.053 22.9343 199.596 22.9343C198.139 22.9343 196.973 22.4809 196.099 21.5743C195.257 20.6676 194.836 19.4695 194.836 17.98C194.836 16.4905 195.29 15.0981 196.196 13.8029C194.998 14.1267 194.01 14.8876 193.233 16.0857C192.456 17.2514 192.068 18.7248 192.068 20.5057C192.068 22.2867 192.327 23.7924 192.845 25.0229C193.978 24.861 195.16 24.78 196.39 24.78C197.653 24.78 198.803 25.1038 199.839 25.7514C200.908 26.3667 201.442 27.241 201.442 28.3743C201.442 29.5076 200.972 30.479 200.033 31.2886C199.094 32.0657 197.848 32.4543 196.293 32.4543C194.739 32.4543 192.91 31.839 190.805 30.6086C189.704 32.0657 189.153 33.5552 189.153 35.0771C189.153 36.5667 189.59 37.7324 190.465 38.5743C191.339 39.4162 192.489 39.8371 193.913 39.8371C196.86 39.8371 199.726 38.3152 202.51 35.2714L204.599 37.02C203.951 38.0562 203.093 39.0924 202.025 40.1286C200.989 41.1648 199.985 42.0067 199.013 42.6543C198.042 43.3019 196.795 43.8686 195.273 44.3543C193.784 44.84 192.246 45.0829 190.659 45.0829C187.648 45.0829 185.09 44.3381 182.985 42.8486C180.88 41.3267 179.828 38.9952 179.828 35.8543C179.828 34.0086 180.427 32.341 181.625 30.8514C182.855 29.3295 184.474 28.0667 186.482 27.0629C184.701 25.0229 183.81 22.74 183.81 20.2143C183.81 17.0086 185.057 14.5152 187.55 12.7343C190.044 10.9209 192.926 10.0143 196.196 10.0143C197.427 10.0143 198.544 10.16 199.548 10.4514C201.782 8.9619 204.162 8.21714 206.688 8.21714C209.246 8.21714 211.075 8.88095 212.176 10.2086C212.111 11.3419 211.755 12.281 211.108 13.0257L210.768 13.4143C209.57 12.119 207.837 11.4714 205.57 11.4714ZM200.908 17.1057C200.908 15.6809 200.422 14.6771 199.45 14.0943C198.511 15.1952 198.042 16.4257 198.042 17.7857C198.042 19.1133 198.479 19.7771 199.353 19.7771C199.807 19.7771 200.179 19.5343 200.47 19.0486C200.762 18.5305 200.908 17.8829 200.908 17.1057ZM196.488 27.3543C195.84 27.3543 195.176 27.4838 194.496 27.7429C195.209 28.7143 196.034 29.2 196.973 29.2C197.912 29.2 198.382 28.9086 198.382 28.3257C198.382 27.6781 197.75 27.3543 196.488 27.3543ZM229.688 24.8286C229.008 26.9333 228.426 29.4429 227.94 32.3571C227.454 35.239 227.211 37.2629 227.211 38.4286C227.211 39.5619 227.389 40.1286 227.746 40.1286L230.174 39.4486L231.048 41.8771C230.012 42.6867 228.685 43.4314 227.066 44.1114C225.479 44.759 224.07 45.0829 222.84 45.0829C220.735 45.0829 219.408 44.1762 218.857 42.3629C216.299 44.1762 214.032 45.0829 212.057 45.0829C210.114 45.0829 208.608 44.3705 207.54 42.9457C206.471 41.521 205.937 39.481 205.937 36.8257C205.937 33.1667 206.876 29.9448 208.754 27.16C210.632 24.3752 213.109 22.9829 216.186 22.9829C217.869 22.9829 219.586 23.4524 221.334 24.3914C221.593 23.8086 221.804 23.3876 221.966 23.1286C224.297 23.1286 226.871 23.6952 229.688 24.8286ZM215.068 36.2429C215.068 37.8619 215.182 38.8819 215.408 39.3029C215.635 39.7238 216.056 39.9343 216.671 39.9343C217.287 39.9343 217.886 39.6914 218.468 39.2057C218.598 35.4495 219.213 31.5152 220.314 27.4029C219.828 27.1114 219.262 26.9657 218.614 26.9657C217.999 26.9657 217.432 27.3219 216.914 28.0343C216.428 28.7467 216.056 29.6371 215.797 30.7057C215.311 32.7457 215.068 34.5914 215.068 36.2429ZM232.712 44.7914H232.323C232.226 44.3381 232.178 43.6419 232.178 42.7029C232.178 41.7314 232.566 39.2543 233.343 35.2714C234.153 31.2562 234.558 28.9895 234.558 28.4714C234.558 27.921 234.412 27.3705 234.121 26.82C233.829 26.2371 233.538 25.8 233.246 25.5086L232.809 25.0714L232.906 24.3429C234.849 23.7276 238.071 23.42 242.572 23.42C242.993 24.2295 243.252 25.1848 243.349 26.2857C245.324 24.0838 247.073 22.9829 248.595 22.9829C250.57 22.9829 251.655 24.6505 251.849 27.9857C251.784 28.0505 251.703 28.1638 251.606 28.3257C251.509 28.4552 251.283 28.6981 250.926 29.0543C250.57 29.4105 250.198 29.7343 249.809 30.0257C248.708 30.7705 247.543 31.2076 246.312 31.3371C246.28 31.3371 246.053 30.981 245.632 30.2686C245.243 29.5562 244.903 29.2 244.612 29.2C244.353 29.2 243.851 29.4914 243.106 30.0743C243.009 30.6571 242.815 31.6448 242.523 33.0371C242.264 34.4295 242.054 35.579 241.892 36.4857C241.406 38.8819 241.163 40.8895 241.163 42.5086L241.212 43.9657C239.787 44.5162 236.954 44.7914 232.712 44.7914ZM251.878 44.7914H251.053C251.053 42.7838 251.506 39.74 252.413 35.66C253.352 31.58 253.821 29.2324 253.821 28.6171C253.821 28.0019 253.676 27.4029 253.384 26.82C253.093 26.2371 252.801 25.8 252.51 25.5086L252.073 25.0714L252.17 24.3429C254.08 23.7276 257.416 23.42 262.176 23.42C262.499 24.1648 262.726 24.9419 262.856 25.7514C265.802 23.9381 268.279 23.0314 270.287 23.0314C271.647 23.0314 272.716 23.4848 273.493 24.3914C274.27 25.2657 274.658 26.3343 274.658 27.5971C274.658 28.8276 274.302 30.819 273.59 33.5714C272.877 36.3238 272.521 38.121 272.521 38.9629C272.521 39.7724 272.635 40.1771 272.861 40.1771L275.436 39.4971L276.31 41.9257C275.274 42.7029 273.914 43.4314 272.23 44.1114C270.578 44.759 269.056 45.0829 267.664 45.0829C264.912 45.0829 263.536 43.6581 263.536 40.8086C263.536 39.5781 263.876 37.5705 264.556 34.7857C265.236 32.001 265.576 30.2686 265.576 29.5886C265.576 28.8762 265.349 28.52 264.896 28.52C264.313 28.52 263.536 28.8438 262.564 29.4914C262.435 30.0743 262.111 31.4829 261.593 33.7171C260.556 38.4124 260.038 41.7962 260.038 43.8686C258.452 44.4838 255.732 44.7914 251.878 44.7914ZM294.121 37.9429C294.121 39.9505 293.182 41.6505 291.304 43.0429C289.459 44.4029 287.289 45.0829 284.796 45.0829C282.302 45.0829 280.246 44.6619 278.627 43.82C277.041 42.9781 276.247 42.1848 276.247 41.44C276.247 40.6629 276.733 39.6914 277.704 38.5257C278.708 37.3276 279.728 36.6314 280.764 36.4371C282.254 37.2467 283.598 39.0438 284.796 41.8286C285.735 41.8286 286.204 41.521 286.204 40.9057C286.204 40.4524 286.075 40.0314 285.816 39.6429C285.557 39.2543 285.362 38.9467 285.233 38.72C285.103 38.4933 284.877 38.1857 284.553 37.7971C284.229 37.3762 283.986 37.0686 283.824 36.8743C283.015 35.9029 282.286 35.0124 281.639 34.2029C280.084 32.26 279.307 30.56 279.307 29.1029C279.307 27.6133 279.777 26.399 280.716 25.46C282.335 23.8086 284.715 22.9829 287.856 22.9829C289.831 22.9829 291.401 23.3714 292.567 24.1486C293.733 24.8933 294.316 26.0267 294.316 27.5486C294.316 29.0381 293.425 30.7543 291.644 32.6971C293.296 34.6076 294.121 36.3562 294.121 37.9429ZM290.867 29.0543C291.256 28.439 291.45 27.8886 291.45 27.4029C291.45 26.9171 291.24 26.5448 290.819 26.2857C290.398 26.0267 289.896 25.8971 289.313 25.8971C288.73 25.8971 288.277 26.0429 287.953 26.3343C287.661 26.5933 287.516 26.9495 287.516 27.4029C287.516 27.8562 288.212 28.86 289.604 30.4143C290.058 30.0905 290.479 29.6371 290.867 29.0543Z" fill="white"/>
</svg>
